<?xml version="1.0" encoding="UTF-8" standalone="no"?>
<!-- Generator: Adobe Illustrator 19.0.0, SVG Export Plug-In . SVG Version: 6.00 Build 0)  -->

<svg
   version="1.1"
   id="Capa_1"
   x="0px"
   y="0px"
   viewBox="0 0 512 512"
   xml:space="preserve"
   width="512"
   height="512"
   xmlns="http://www.w3.org/2000/svg"
   xmlns:svg="http://www.w3.org/2000/svg"><defs
   id="defs43" />
<g
   id="g8"
   style="fill:#c52cb6;fill-opacity:1"
   transform="matrix(1.0019569,0,0,1.0019569,1.205e-5,1.205e-5)">
	<path
   d="M 0,104 V 407 H 511 V 104 Z M 308.486,288 H 202.514 L 26.166,119 H 484.834 Z M 149.871,258.327 15,382.409 V 129.076 Z m 10.852,10.4 L 196.486,303 H 314.513 L 350.277,268.727 484.27,392 H 26.73 Z M 361.129,258.327 496,129.076 v 253.333 z"
   id="path2"
   style="fill:#c52cb6;fill-opacity:1" />
	<rect
   x="399.5"
   y="136"
   width="24"
   height="15"
   id="rect4"
   style="fill:#c52cb6;fill-opacity:1" />
	<rect
   x="255.5"
   y="136"
   width="128"
   height="15"
   id="rect6"
   style="fill:#c52cb6;fill-opacity:1" />
</g>
<g
   id="g10"
   transform="matrix(0.8634144,0,0,0.8634144,87.81412,-8.6080309)">
</g>
<g
   id="g12"
   transform="matrix(0.8634144,0,0,0.8634144,87.81412,-8.6080309)">
</g>
<g
   id="g14"
   transform="matrix(0.8634144,0,0,0.8634144,87.81412,-8.6080309)">
</g>
<g
   id="g16"
   transform="matrix(0.8634144,0,0,0.8634144,87.81412,-8.6080309)">
</g>
<g
   id="g18"
   transform="matrix(0.8634144,0,0,0.8634144,87.81412,-8.6080309)">
</g>
<g
   id="g20"
   transform="matrix(0.8634144,0,0,0.8634144,87.81412,-8.6080309)">
</g>
<g
   id="g22"
   transform="matrix(0.8634144,0,0,0.8634144,87.81412,-8.6080309)">
</g>
<g
   id="g24"
   transform="matrix(0.8634144,0,0,0.8634144,87.81412,-8.6080309)">
</g>
<g
   id="g26"
   transform="matrix(0.8634144,0,0,0.8634144,87.81412,-8.6080309)">
</g>
<g
   id="g28"
   transform="matrix(0.8634144,0,0,0.8634144,87.81412,-8.6080309)">
</g>
<g
   id="g30"
   transform="matrix(0.8634144,0,0,0.8634144,87.81412,-8.6080309)">
</g>
<g
   id="g32"
   transform="matrix(0.8634144,0,0,0.8634144,87.81412,-8.6080309)">
</g>
<g
   id="g34"
   transform="matrix(0.8634144,0,0,0.8634144,87.81412,-8.6080309)">
</g>
<g
   id="g36"
   transform="matrix(0.8634144,0,0,0.8634144,87.81412,-8.6080309)">
</g>
<g
   id="g38"
   transform="matrix(0.8634144,0,0,0.8634144,87.81412,-8.6080309)">
</g>
<g
   id="XMLID_1099_"
   transform="matrix(1.0019569,0,0,1.0019569,70.021774,70.022277)"><g
     id="XMLID_1100_"><g
       id="XMLID_1101_"><path
         id="XMLID_1102_"
         style="fill:#6da8d6"
         d="m 178.115,356.229 c -60.93,0 -110.5,-67.799 -110.5,-128.729 v -117 c 0,-60.93 49.57,-110.5 110.5,-110.5 60.93,0 110.5,49.57 110.5,110.5 v 117 c 0,60.93 -49.571,128.729 -110.5,128.729 z m 0,-306.229 c -33.359,0 -60.5,27.14 -60.5,60.5 v 117 c 0,33.36 27.141,60.5 60.5,60.5 33.359,0 60.5,-27.14 60.5,-60.5 v -117 c 0,-33.36 -27.141,-60.5 -60.5,-60.5 z" /></g><path
       id="XMLID_1107_"
       style="fill:#2974a8"
       d="m 178.115,0 v 50 c 33.359,0 60.5,27.14 60.5,60.5 v 117 c 0,33.36 -27.141,60.5 -60.5,60.5 v 68.229 c 60.93,0 110.5,-67.799 110.5,-128.729 v -117 C 288.615,49.57 239.044,0 178.115,0 Z" /></g><g
     id="XMLID_1108_"><rect
       id="XMLID_42_"
       x="43.115002"
       y="149.35699"
       style="fill:#f9e375"
       width="270"
       height="221.87199" /><rect
       id="XMLID_1112_"
       x="178.11501"
       y="149.35699"
       style="fill:#f5d361"
       width="135"
       height="221.87199" /></g><rect
     id="XMLID_35_"
     x="278.11499"
     y="191.229"
     style="fill:#2974a8"
     width="50"
     height="40" /><rect
     id="XMLID_34_"
     x="278.11499"
     y="251.229"
     style="fill:#6da8d6"
     width="50"
     height="40" /><rect
     id="XMLID_3_"
     x="278.11499"
     y="311.229"
     style="fill:#2974a8"
     width="50"
     height="40" /></g><g
   id="g13"
   transform="matrix(0.8634144,0,0,0.8634144,150.11984,58.304855)" /><g
   id="g15"
   transform="matrix(0.8634144,0,0,0.8634144,150.11984,58.304855)" /><g
   id="g17"
   transform="matrix(0.8634144,0,0,0.8634144,150.11984,58.304855)" /><g
   id="g19"
   transform="matrix(0.8634144,0,0,0.8634144,150.11984,58.304855)" /><g
   id="g21"
   transform="matrix(0.8634144,0,0,0.8634144,150.11984,58.304855)" /><g
   id="g23"
   transform="matrix(0.8634144,0,0,0.8634144,150.11984,58.304855)" /><g
   id="g25"
   transform="matrix(0.8634144,0,0,0.8634144,150.11984,58.304855)" /><g
   id="g27"
   transform="matrix(0.8634144,0,0,0.8634144,150.11984,58.304855)" /><g
   id="g29"
   transform="matrix(0.8634144,0,0,0.8634144,150.11984,58.304855)" /><g
   id="g31"
   transform="matrix(0.8634144,0,0,0.8634144,150.11984,58.304855)" /><g
   id="g33"
   transform="matrix(0.8634144,0,0,0.8634144,150.11984,58.304855)" /><g
   id="g35"
   transform="matrix(0.8634144,0,0,0.8634144,150.11984,58.304855)" /><g
   id="g37"
   transform="matrix(0.8634144,0,0,0.8634144,150.11984,58.304855)" /><g
   id="g39"
   transform="matrix(0.8634144,0,0,0.8634144,150.11984,58.304855)" /><g
   id="g41"
   transform="matrix(0.8634144,0,0,0.8634144,150.11984,58.304855)" /></svg>
